PathFileType	4	(X/Y/Z)	C:\Users\Basilio\Documents\Thesis Gigler\squatting_fais\c3dfiles\044\SLS_front_pre1\markers_experimental.trc
DataRate	CameraRate	NumFrames	NumMarkers	Units	OrigDataRate	OrigDataStartFrame	OrigNumFrames
200.000000	200.000000	4	60	mm	200.000000	392	1570
Frame#	Time	FHD			LBHD			RBHD			C7			T10			CLAV			LSHO			LUUPA			LMUPA			LDUPA			LLEP			LMEP			LUL			LRFIN			RSHO			RUPA1			RMUPA			RDUPA			RLEP			RMEP			RUL			RUFIN			LASI			RASI			USACR			LSACR			LTHI1			LTHI2			LTHI3			LTHI4			LLFC			LMFC			LTIB1			LTIB2			LTIB3			LTIB4			LLMAL			LMMAL			LHEE			LMT1			LMT2			LMT5			RTHI			RTHI2			RTHI3			RTHI4			RLFC			RMFC			RTIB1			RTIB2			RTIB3			RTIB4			RLMAL			RHEE			RMT1			RMT2			RMT5			RMMAL			RSACR			LRAD			
		X1	Y1	Z1	X2	Y2	Z2	X3	Y3	Z3	X4	Y4	Z4	X5	Y5	Z5	X6	Y6	Z6	X7	Y7	Z7	X8	Y8	Z8	X9	Y9	Z9	X10	Y10	Z10	X11	Y11	Z11	X12	Y12	Z12	X13	Y13	Z13	X14	Y14	Z14	X15	Y15	Z15	X16	Y16	Z16	X17	Y17	Z17	X18	Y18	Z18	X19	Y19	Z19	X20	Y20	Z20	X21	Y21	Z21	X22	Y22	Z22	X23	Y23	Z23	X24	Y24	Z24	X25	Y25	Z25	X26	Y26	Z26	X27	Y27	Z27	X28	Y28	Z28	X29	Y29	Z29	X30	Y30	Z30	X31	Y31	Z31	X32	Y32	Z32	X33	Y33	Z33	X34	Y34	Z34	X35	Y35	Z35	X36	Y36	Z36	X37	Y37	Z37	X38	Y38	Z38	X39	Y39	Z39	X40	Y40	Z40	X41	Y41	Z41	X42	Y42	Z42	X43	Y43	Z43	X44	Y44	Z44	X45	Y45	Z45	X46	Y46	Z46	X47	Y47	Z47	X48	Y48	Z48	X49	Y49	Z49	X50	Y50	Z50	X51	Y51	Z51	X52	Y52	Z52	X53	Y53	Z53	X54	Y54	Z54	X55	Y55	Z55	X56	Y56	Z56	X57	Y57	Z57	X58	Y58	Z58	X59	Y59	Z59	X60	Y60	Z60	

393	1.96	-164.6492767333985	1761.625	-1054.546997070313	-300.2953491210938	1745.840942382813	-1134.418090820313	-349.6247558593751	1739.234497070313	-975.8594970703127	-390.4556579589845	1562.371826171875	-1060.409057617188	-425.4028320312501	1259.37353515625	-1035.24755859375	-254.0830688476563	1511.390502929688	-1051.864624023438	-289.5684814453126	1562.163208007813	-1203.362060546875	-133.1312408447266	1498.02978515625	-1301.09521484375	-103.0885696411133	1504.541137695313	-1261.057983398438	-66.50389862060548	1479.155151367188	-1302.57177734375	-8.711194038391115	1465.763671875	-1292.419189453125	-34.69694137573243	1390.833740234375	-1276.1064453125	227.7767181396485	1434.070922851563	-1142.358276367188	244.4547576904297	1450.843383789063	-1038.53955078125	-311.9979248046876	1570.4296875	-897.769958496094	-170.9252319335938	1510.474609375	-783.5898437500002	-135.7749786376953	1517.30322265625	-819.782897949219	-103.7796096801758	1493.651489257813	-774.554382324219	-42.2539405822754	1482.791137695313	-780.438659667969	-61.785945892334	1403.258911132813	-792.0396118164065	209.5374908447266	1439.439086914063	-899.7290649414065	224.5389404296876	1428.434448242188	-1016.686706542969	-245.7048950195313	1054.835083007813	-1105.29248046875	-264.9893188476563	1052.095458984375	-889.7672119140627	-423.3362121582032	1104.555053710938	-1011.348205566406	-425.9224243164064	1070.478149414063	-1036.061279296875	-305.9231872558594	808.8061523437502	-1172.776123046875	-260.9228515625001	737.3932495117189	-1166.184692382813	-214.8589782714844	747.2368164062501	-1159.369384765625	-279.3333740234376	681.6905517578126	-1151.715454101563	-243.1881408691407	528.8783569335939	-1127.801147460938	-236.5162048339844	532.9588012695314	-1005.917602539063	-241.7540435791016	359.2753295898438	-1034.495971679688	-273.2972106933594	308.5114135742188	-1101.015625	-243.5410156250001	308.9357299804688	-1063.683715820313	-272.2002868652344	236.7793426513672	-1025.85302734375	-341.2480468750001	127.5463180541992	-1060.79931640625	-321.5540161132813	138.3663024902344	-976.346862792969	-407.7728576660157	111.5297241210938	-1008.487609863281	-203.1880798339844	61.86462783813478	-985.0486450195315	-202.1208953857422	62.71114730834962	-1031.937133789063	-238.4405975341797	48.74069595336915	-1078.727172851563	-287.8820800781251	784.1878662109377	-802.3564453125002	-231.7985382080079	745.7235717773439	-798.5906982421877	-201.8906555175782	758.1557617187501	-807.0996093750002	-230.1842346191407	661.8303833007814	-809.5350341796877	-196.715805053711	555.6873168945314	-808.0577392578127	-208.4393157958985	536.4767456054689	-929.901306152344	-132.0115661621094	434.6116638183595	-828.349304199219	-187.4499969482422	358.6674804687501	-769.5280761718752	-146.8209686279297	356.1956481933594	-789.679870605469	-130.4231872558594	305.2550048828126	-811.436462402344	-166.6878356933594	144.6659851074219	-774.6148681640627	-218.8678131103516	91.23577880859376	-809.4541625976565	-17.41257476806641	117.5267333984375	-860.5407714843752	-3.863368511199952	119.2677993774414	-825.2940063476565	-28.94977569580079	95.27859497070314	-768.0233154296877	-157.4815673828125	148.8865509033203	-860.1378173828127	nan	nan	nan	nan	nan	nan	
394	1.965	-164.3559112548828	1761.408569335938	-1054.645629882813	-299.9212341308594	1745.547729492188	-1134.484130859375	-349.4865417480469	1738.79443359375	-975.9384765625002	-390.2559814453126	1562.0029296875	-1060.479248046875	-425.6870727539064	1259.003173828125	-1035.187744140625	-253.9243164062501	1510.974853515625	-1051.93798828125	-289.5150451660157	1561.724853515625	-1203.400268554688	-133.1011657714844	1497.39013671875	-1301.091064453125	-103.1655197143555	1504.03662109375	-1261.077880859375	-66.38717651367189	1478.701171875	-1302.766845703125	-8.944973945617678	1465.408447265625	-1292.319946289063	-34.60247802734376	1390.621948242188	-1276.167236328125	227.7652435302735	1433.67333984375	-1142.190307617188	244.7519683837891	1450.262451171875	-1038.822631835938	-311.9364013671876	1569.967529296875	-897.7633056640627	-170.7269134521485	1510.248779296875	-783.7684326171877	-135.5870361328125	1517.034057617188	-819.861511230469	-103.598014831543	1493.4072265625	-774.6239013671877	-42.02427291870118	1482.221801757813	-780.4516601562502	-61.72812652587892	1402.917114257813	-792.0393066406252	209.5458679199219	1438.940307617188	-899.5576171875002	224.6771850585938	1428.00146484375	-1016.705383300781	-246.0944061279297	1054.456665039063	-1105.13232421875	-265.1856994628907	1051.78515625	-889.8438720703127	-423.6503295898439	1104.197509765625	-1011.350341796875	-426.3952941894532	1070.207397460938	-1035.995849609375	-305.8191223144532	808.3254394531252	-1172.854125976563	-260.6639709472657	737.2293090820314	-1166.355834960938	-214.7544708251954	747.0701904296876	-1159.548095703125	-279.0144958496094	681.3964843750001	-1151.828247070313	-242.6758422851563	528.5488891601564	-1127.99658203125	-235.7732849121094	532.9157104492189	-1006.158447265625	-241.2638092041016	359.1597290039063	-1034.705688476563	-272.8570861816407	308.4043884277344	-1101.057006835938	-243.2192535400391	308.7732238769532	-1063.712890625	-271.9917602539063	236.5675659179688	-1025.827880859375	-341.2479553222657	127.5456161499024	-1060.75390625	-321.5288391113282	138.3455505371094	-976.3526000976565	-407.7437438964845	111.5455703735352	-1008.488464355469	-203.1658630371094	61.85760498046876	-985.0999145507815	-202.1244659423829	62.75967025756837	-1031.936157226563	-238.4061126708985	48.69845962524415	-1078.730834960938	-287.5647277832032	784.2020263671877	-802.429626464844	-231.1824951171876	745.9089355468751	-798.580261230469	-201.2454528808594	758.2246093750001	-807.3267211914065	-229.6197204589844	661.8620605468751	-809.4824218750002	-195.8625793457032	555.6745605468751	-808.0576782226565	-207.523422241211	536.5036010742189	-929.8953247070315	-131.0889434814453	434.6639404296876	-828.2734375000002	-185.9054260253907	358.6744995117188	-769.4589843750002	-145.4349365234375	356.3800964355469	-789.7947998046877	-128.9186248779297	305.4148254394532	-811.4309692382815	-164.8953399658203	144.6272430419922	-774.6106567382815	-217.1322021484376	91.31235504150392	-809.5263671875002	-15.55523490905762	118.1904525756836	-860.487243652344	-1.852160573005677	119.7005233764649	-824.8410644531252	-27.2075481414795	95.90132904052736	-767.9247436523439	-155.7935180664063	148.962387084961	-860.3311157226565	nan	nan	nan	nan	nan	nan	
395	1.97	-164.5304107666016	1761.051391601563	-1054.655883789063	-299.5080261230469	1745.377197265625	-1134.6337890625	-349.2060546875001	1738.53955078125	-976.031921386719	-390.194305419922	1561.6806640625	-1060.523559570313	-425.9023742675782	1258.820190429688	-1035.215576171875	-253.684310913086	1510.583251953125	-1052.049438476563	-289.1995849609376	1561.743408203125	-1203.425048828125	-132.8616333007813	1497.049438476563	-1301.2216796875	-102.942253112793	1503.631958007813	-1261.191040039063	-66.26817321777345	1478.082153320313	-1302.893676757813	-8.744862556457521	1464.919311523438	-1292.475952148438	-34.57249832153321	1390.155151367188	-1276.244262695313	227.9187927246094	1433.430419921875	-1142.256103515625	244.9900665283204	1449.901733398438	-1038.872314453125	-311.7277221679688	1569.601928710938	-897.782409667969	-170.6110382080078	1510.025268554688	-783.8177490234377	-135.2883758544922	1516.60888671875	-819.9066162109377	-103.3887939453125	1493.236938476563	-774.842712402344	-42.07814407348634	1482.196411132813	-780.506042480469	-61.50820922851564	1402.564819335938	-792.1951293945315	209.492660522461	1438.832763671875	-899.8968505859377	225.0547027587891	1427.635864257813	-1016.646911621094	-245.5749053955079	1053.895141601563	-1105.431030273438	-265.7488403320313	1051.671997070313	-890.5061035156252	-423.9115600585939	1103.951904296875	-1011.324584960938	-426.878631591797	1069.93359375	-1035.865966796875	-305.8189086914063	808.001647949219	-1172.906860351563	-260.5928955078126	736.8375244140626	-1166.503173828125	-214.3434753417969	746.7801513671876	-1159.723388671875	-278.6465759277344	681.0767822265626	-1151.995727539063	-241.5460968017579	527.9880371093751	-1128.201904296875	-235.3064117431641	532.6286621093751	-1006.210083007813	-240.8067626953126	358.9609375000001	-1034.849365234375	-272.4937744140626	308.2736206054688	-1101.18701171875	-241.7714233398438	309.4320678710938	-1064.501831054688	-271.8309936523438	236.4683074951172	-1025.842895507813	-341.2011413574219	127.5628738403321	-1060.77880859375	-321.4902648925782	138.3993835449219	-976.3275146484377	-407.756561279297	111.5235824584961	-1008.470825195313	-203.1286315917969	61.84422302246095	-985.131530761719	-202.1152038574219	62.72829818725587	-1031.931274414063	-238.8123168945313	48.45529937744142	-1078.532958984375	-287.2619018554688	784.1163330078127	-802.3070068359377	-230.7987670898438	745.9500122070314	-798.429138183594	-200.8708496093751	758.2713012695314	-807.4429321289065	-229.3324890136719	662.3095703125001	-809.8052368164065	-194.9694213867188	555.7606811523439	-808.1362304687502	-206.7382812500001	536.5208129882814	-929.8962402343752	-129.8826751708985	434.9107360839845	-828.2462158203127	-184.9514770507813	358.3869018554688	-769.3342285156252	-144.2378845214844	356.3298034667969	-789.938659667969	-127.6340866088867	305.7543334960938	-811.6611938476565	-163.3261413574219	144.8763885498047	-774.7378540039065	-215.4004058837891	90.98158264160158	-809.6607055664065	-14.0210189819336	118.597640991211	-860.4172973632815	-0.6095214486122132	120.3330383300782	-825.2332153320315	-25.7352466583252	96.45578765869143	-767.7852783203126	-154.0904846191407	149.1426391601563	-860.2942504882815	nan	nan	nan	nan	nan	nan	
396	1.975	-164.5198974609375	1760.886962890625	-1054.619262695313	-299.2625122070313	1745.079345703125	-1134.679077148438	-349.0299682617188	1738.243896484375	-976.1442871093752	-390.4345703125001	1562.180053710938	-1061.034301757813	-425.9635009765626	1258.513427734375	-1035.174194335938	-253.5367584228516	1510.220458984375	-1052.087280273438	-288.9540100097657	1561.33642578125	-1203.394287109375	-132.7659759521485	1496.543579101563	-1301.36279296875	-102.8299179077149	1503.173583984375	-1261.21142578125	-66.15516662597658	1477.791625976563	-1302.878784179688	-8.527018547058107	1464.369750976563	-1292.5830078125	-34.61678314208985	1389.80859375	-1276.233520507813	228.1449584960938	1432.9580078125	-1142.395141601563	245.1302642822266	1449.138549804688	-1038.509033203125	-311.5717468261719	1569.308959960938	-897.8652954101565	-170.3765106201172	1509.781860351563	-783.8961181640627	-135.1632995605469	1516.0888671875	-819.877136230469	-103.1614151000977	1492.874755859375	-774.903747558594	-41.85048294067384	1481.872436523438	-780.6452636718752	-61.29954528808595	1402.317993164063	-792.2437133789065	209.6345367431641	1438.353149414063	-899.8796997070315	225.109359741211	1427.29345703125	-1016.746765136719	-245.9449157714844	1053.496337890625	-1105.333740234375	-265.9478759765626	1051.407348632813	-890.5983886718752	-424.1765441894532	1103.572875976563	-1011.294555664063	-427.1474609375001	1069.618408203125	-1035.909790039063	-305.6908264160157	807.625427246094	-1173.014404296875	-260.4707336425782	736.4902343750001	-1166.695922851563	-214.2293090820313	746.6633300781251	-1159.892211914063	-278.3962707519532	680.8326416015626	-1152.119384765625	-240.9839324951172	527.7268676757814	-1128.33544921875	-234.7370910644532	532.5333862304689	-1006.426452636719	-240.3275146484376	358.8609313964844	-1034.910278320313	-271.6114196777344	308.6029357910157	-1101.252319335938	-242.8750000000001	308.4840393066407	-1063.776123046875	-271.6215209960938	236.2510223388672	-1025.881713867188	-341.0587158203126	127.9309997558594	-1060.749267578125	-321.4305114746094	138.3670501708985	-976.3237915039065	-407.7255249023439	111.5810852050782	-1008.475463867188	-203.0841522216797	61.83174133300783	-985.1687622070315	-202.1129302978516	62.68503952026369	-1031.939208984375	-238.4072723388672	48.67856216430665	-1078.73486328125	-286.8209228515626	783.7088623046877	-802.1569824218752	-230.4336853027344	745.8190917968751	-798.080993652344	-200.6060180664063	758.3532714843751	-807.5485839843752	-228.5994873046876	662.2434692382814	-809.8147583007815	-193.9543609619141	556.1281127929689	-808.1999511718752	-205.8488159179688	536.6240844726564	-929.934997558594	-128.807357788086	435.1175842285157	-828.2880859375002	-183.3765563964844	358.2716064453126	-769.5551757812502	-142.9411010742188	356.6438293457032	-790.0748291015627	-126.4359436035157	305.8765258789063	-811.5255126953127	-161.84423828125	145.169418334961	-774.7879028320315	-213.8346252441407	91.4116668701172	-809.3587036132815	-12.12259578704834	119.304443359375	-860.2888793945315	1.191996812820435	121.2536849975586	-824.7066650390627	-23.74661636352539	96.761100769043	-767.6678466796876	-152.5159149169922	149.2508544921875	-860.199890136719	nan	nan	nan	nan	nan	nan	
